<svg xmlns="http://www.w3.org/2000/svg"
  xmlns:xlink="http://www.w3.org/1999/xlink" width="40" zoomAndPan="magnify" viewBox="0 0 30 30.000001" height="40" preserveAspectRatio="xMidYMid meet" version="1.0">
  <defs>
    <clipPath id="id1">
      <path d="M 3.386719 5.109375 L 26.613281 5.109375 L 26.613281 23.980469 L 3.386719 23.980469 Z M 3.386719 5.109375 " clip-rule="nonzero"/>
    </clipPath>
  </defs>
  <g clip-path="url(#id1)">
    <path fill="rgb(69.018555%, 83.139038%, 0%)" d="M 4.492188 5.109375 C 3.882812 5.109375 3.386719 5.605469 3.386719 6.21875 L 3.386719 9.550781 C 3.386719 12.308594 5.617188 14.546875 8.363281 14.546875 L 8.917969 14.546875 L 8.917969 22.871094 C 8.917969 23.484375 9.414062 23.980469 10.023438 23.980469 L 14.445312 23.980469 C 15.058594 23.980469 15.554688 23.484375 15.554688 22.871094 L 15.554688 13.988281 C 15.554688 12.765625 16.542969 11.769531 17.765625 11.769531 C 18.988281 11.769531 19.976562 12.765625 19.976562 13.988281 L 19.976562 22.871094 C 19.976562 23.484375 20.472656 23.980469 21.082031 23.980469 L 25.507812 23.980469 C 26.117188 23.980469 26.613281 23.484375 26.613281 22.871094 L 26.613281 13.988281 C 26.613281 9.085938 22.652344 5.109375 17.765625 5.109375 C 14.726562 5.109375 12.050781 6.644531 10.457031 8.980469 C 10.210938 8.929688 10.023438 8.707031 10.023438 8.441406 L 10.023438 6.21875 C 10.023438 5.605469 9.527344 5.109375 8.917969 5.109375 Z M 4.492188 5.109375 " fill-opacity="1" fill-rule="nonzero"/>
  </g>
</svg>